<?xml version="1.0" standalone="no"?>
<!DOCTYPE svg PUBLIC "-//W3C//DTD SVG 20010904//EN"
 "http://www.w3.org/TR/2001/REC-SVG-20010904/DTD/svg10.dtd">
<svg version="1.0" xmlns="http://www.w3.org/2000/svg"
 width="500.000000pt" height="500.000000pt" viewBox="0 0 500.000000 500.000000"
 preserveAspectRatio="xMidYMid meet">
<metadata>
Created by potrace 1.14, written by Peter Selinger 2001-2017
</metadata>
<g transform="translate(0.000000,500.000000) scale(0.100000,-0.100000)"
fill="#000000" stroke="none">
<path d="M2135 3430 c-103 -32 -202 -130 -232 -230 -20 -69 -13 -180 16 -245
20 -45 22 -46 53 -40 18 4 43 13 56 21 21 14 22 20 22 155 0 135 1 141 25 164
22 23 31 25 123 25 174 0 192 -19 192 -198 0 -156 -2 -154 171 -160 101 -3
138 -8 152 -20 15 -13 17 -35 17 -179 0 -213 8 -203 -173 -203 -154 0 -167 -6
-167 -78 0 -40 3 -44 75 -98 65 -49 79 -55 98 -46 46 21 246 190 352 297 165
166 262 319 287 453 9 50 8 72 -5 128 -38 153 -150 250 -301 261 -89 7 -167
-15 -230 -63 -44 -33 -95 -98 -110 -138 -6 -17 -10 -14 -27 21 -29 58 -95 121
-159 151 -60 28 -180 39 -235 22z"/>
<path d="M960 2070 l0 -170 35 0 35 0 0 75 0 75 70 0 70 0 0 -75 0 -75 30 0
30 0 0 170 0 170 -30 0 -30 0 0 -70 0 -70 -70 0 -70 0 0 70 0 70 -35 0 -35 0
0 -170z"/>
<path d="M1290 2070 l0 -170 105 0 105 0 0 25 c0 24 -2 25 -70 25 l-70 0 0 50
0 50 55 0 c52 0 55 1 55 25 0 24 -3 25 -55 25 l-55 0 0 50 0 50 70 0 c63 0 70
2 70 20 0 19 -7 20 -105 20 l-105 0 0 -170z"/>
<path d="M1635 2228 c-56 -154 -115 -321 -115 -325 0 -2 12 -3 26 -1 21 2 30
12 44 48 17 44 18 45 68 48 l50 3 17 -51 c16 -47 19 -50 51 -50 19 0 34 1 34
3 0 1 -27 76 -59 167 -54 152 -61 165 -85 168 -15 2 -28 -2 -31 -10z m51 -162
c6 -24 4 -26 -25 -26 -35 0 -36 3 -19 68 l12 47 12 -31 c7 -17 16 -43 20 -58z"/>
<path d="M1840 2070 l0 -170 100 0 100 0 0 25 c0 24 -2 25 -65 25 l-65 0 0
145 0 145 -35 0 -35 0 0 -170z"/>
<path d="M2060 2220 c0 -17 7 -20 45 -20 l45 0 0 -150 0 -150 35 0 35 0 0 150
0 150 50 0 c43 0 50 3 50 20 0 19 -7 20 -130 20 -123 0 -130 -1 -130 -20z"/>
<path d="M2350 2070 l0 -170 35 0 35 0 0 75 0 75 70 0 70 0 0 -75 0 -75 35 0
35 0 0 170 0 170 -35 0 -35 0 0 -70 0 -70 -70 0 -70 0 0 70 0 70 -35 0 -35 0
0 -170z"/>
<path d="M2660 2233 c0 -5 25 -81 56 -170 51 -146 59 -163 79 -163 20 0 29 16
74 146 69 197 69 194 39 194 -21 0 -28 -11 -64 -119 l-41 -118 -38 118 -39
119 -33 0 c-18 0 -33 -3 -33 -7z"/>
<path d="M3055 2228 c-56 -154 -115 -321 -115 -325 0 -2 12 -3 26 -1 21 2 30
12 44 48 17 44 18 45 68 48 l50 3 17 -51 c16 -47 19 -50 51 -50 19 0 34 1 34
3 0 1 -27 76 -59 167 -54 152 -61 165 -85 168 -15 2 -28 -2 -31 -10z m51 -162
c6 -24 4 -26 -25 -26 -35 0 -36 3 -19 68 l12 47 12 -31 c7 -17 16 -43 20 -58z"/>
<path d="M3262 2113 c3 -78 10 -139 18 -156 19 -39 59 -57 126 -57 50 0 59 3
90 34 l34 34 0 136 0 136 -25 0 -25 0 0 -128 c0 -121 -1 -130 -23 -150 -31
-29 -77 -29 -105 1 -20 21 -22 34 -22 150 l0 127 -36 0 -36 0 4 -127z"/>
<path d="M3590 2070 l0 -170 100 0 100 0 0 25 c0 24 -2 25 -65 25 l-65 0 0
145 0 145 -35 0 -35 0 0 -170z"/>
<path d="M3810 2220 c0 -17 7 -20 45 -20 l45 0 0 -150 0 -150 35 0 35 0 0 150
0 150 45 0 c38 0 45 3 45 20 0 19 -7 20 -125 20 -118 0 -125 -1 -125 -20z"/>
<path d="M996 1739 c-3 -8 -15 -40 -27 -72 -11 -32 -18 -61 -15 -64 3 -3 10 6
15 21 14 36 58 37 67 1 3 -14 10 -25 15 -25 13 0 11 10 -11 76 -23 65 -37 85
-44 63z m24 -66 c0 -7 -7 -13 -15 -13 -16 0 -19 9 -9 35 5 13 8 14 15 3 5 -7
9 -19 9 -25z"/>
<path d="M1142 1738 c-20 -20 -14 -42 20 -69 41 -34 34 -64 -13 -54 -22 5 -29
4 -25 -4 4 -6 20 -11 35 -11 56 0 70 50 21 78 -41 24 -40 52 3 52 24 0 28 3
17 10 -20 13 -44 12 -58 -2z"/>
<path d="M1240 1675 l0 -75 43 2 c36 1 38 2 10 5 -29 4 -33 8 -33 33 0 24 5
29 28 33 l27 4 -27 2 c-23 1 -28 6 -28 26 0 21 5 25 30 25 17 0 30 5 30 10 0
6 -18 10 -40 10 l-40 0 0 -75z"/>
<path d="M1380 1743 c-40 -14 -53 -79 -24 -121 16 -24 77 -31 90 -11 4 8 -3 9
-24 5 -38 -9 -62 14 -62 58 0 40 21 60 55 54 28 -6 34 6 9 16 -18 7 -23 7 -44
-1z"/>
<path d="M1470 1689 c0 -37 5 -70 12 -77 20 -20 65 -14 82 10 18 25 22 113 6
123 -6 4 -10 -16 -10 -53 0 -42 -5 -63 -16 -73 -28 -23 -49 1 -52 62 -5 80
-22 86 -22 8z"/>
<path d="M1610 1675 c0 -43 4 -75 10 -75 6 0 10 16 10 35 0 19 5 35 10 35 6 0
20 -16 31 -35 12 -19 25 -35 30 -35 13 0 11 7 -8 36 -13 21 -14 30 -5 45 19
29 14 49 -14 59 -58 23 -64 17 -64 -65z m65 30 c0 -13 -8 -21 -22 -23 -19 -3
-23 1 -23 23 0 22 4 26 23 23 14 -2 22 -10 22 -23z"/>
<path d="M1730 1675 l0 -75 43 2 c36 1 38 2 10 5 -29 4 -33 8 -33 33 0 24 5
29 28 33 l27 4 -27 2 c-23 1 -28 6 -28 26 0 21 5 25 30 25 17 0 30 5 30 10 0
6 -18 10 -40 10 l-40 0 0 -75z"/>
<path d="M1890 1676 c0 -44 4 -76 10 -76 6 0 10 16 10 35 0 33 2 35 35 35 33
0 35 -2 35 -35 0 -19 5 -35 10 -35 6 0 10 30 10 69 0 39 -4 73 -10 76 -6 4
-10 -8 -10 -29 0 -34 -2 -36 -35 -36 -32 0 -35 2 -35 29 0 17 -4 33 -10 36 -6
4 -10 -22 -10 -69z"/>
<path d="M2030 1675 l0 -75 43 2 c36 1 38 2 10 5 -29 4 -33 8 -33 33 0 24 5
29 28 33 l27 4 -27 2 c-23 1 -28 6 -28 26 0 21 5 25 30 25 17 0 30 5 30 10 0
6 -18 10 -40 10 l-40 0 0 -75z"/>
<path d="M2176 1739 c-3 -8 -15 -40 -27 -72 -11 -32 -18 -61 -15 -64 3 -3 10
6 15 21 14 36 58 37 67 1 3 -14 10 -25 15 -25 13 0 11 10 -11 76 -23 65 -37
85 -44 63z m24 -66 c0 -7 -7 -13 -15 -13 -16 0 -19 9 -9 35 5 13 8 14 15 3 5
-7 9 -19 9 -25z"/>
<path d="M2268 1744 c-5 -4 -8 -38 -8 -76 l0 -68 43 1 c38 1 39 2 12 8 -29 6
-30 8 -35 74 -3 38 -8 65 -12 61z"/>
<path d="M2360 1740 c0 -5 9 -10 20 -10 18 0 20 -7 20 -65 0 -37 4 -65 10 -65
6 0 10 28 10 65 0 58 2 65 20 65 11 0 20 5 20 10 0 6 -22 10 -50 10 -27 0 -50
-4 -50 -10z"/>
<path d="M2480 1675 c0 -43 4 -75 10 -75 6 0 10 16 10 35 0 33 2 35 35 35 33
0 35 -2 35 -35 0 -19 5 -35 10 -35 6 0 10 32 10 76 0 47 -4 73 -10 69 -5 -3
-10 -19 -10 -36 0 -27 -3 -29 -35 -29 -33 0 -35 2 -35 35 0 19 -4 35 -10 35
-6 0 -10 -32 -10 -75z"/>
<path d="M2646 1729 c-52 -41 -23 -129 43 -129 17 0 33 5 37 11 5 9 -1 10 -21
5 -51 -13 -82 43 -54 95 7 14 19 20 37 19 41 -3 48 -1 32 10 -23 15 -45 12
-74 -11z"/>
<path d="M2786 1739 c-3 -8 -15 -40 -27 -72 -11 -32 -18 -61 -15 -64 3 -3 10
6 15 21 14 36 58 37 67 1 3 -14 10 -25 15 -25 13 0 11 10 -11 76 -23 65 -37
85 -44 63z m24 -66 c0 -7 -7 -13 -15 -13 -16 0 -19 9 -9 35 5 13 8 14 15 3 5
-7 9 -19 9 -25z"/>
<path d="M2880 1675 c0 -43 4 -75 10 -75 6 0 10 16 10 35 0 19 4 35 9 35 5 0
18 -16 30 -35 11 -19 25 -35 32 -35 6 0 3 13 -9 32 -19 29 -19 33 -4 56 15 23
15 26 -7 43 -13 11 -34 19 -47 19 -23 0 -24 -3 -24 -75z m64 46 c10 -16 -5
-41 -25 -41 -14 0 -19 7 -19 25 0 18 5 25 19 25 11 0 22 -4 25 -9z"/>
<path d="M2997 1743 c-4 -3 -7 -37 -7 -75 l0 -68 48 1 c44 2 45 2 12 8 -29 5
-36 11 -38 33 -3 22 1 27 25 31 l28 4 -27 2 c-23 1 -28 6 -28 26 0 22 4 25 35
25 19 0 35 5 35 10 0 11 -73 14 -83 3z"/>
<path d="M3150 1675 c0 -43 4 -75 10 -75 6 0 10 14 10 30 0 25 4 30 23 30 50
0 67 63 21 80 -58 23 -64 17 -64 -65z m65 25 c0 -18 -6 -26 -22 -28 -20 -3
-23 1 -23 28 0 27 3 31 23 28 16 -2 22 -10 22 -28z"/>
<path d="M3270 1675 c0 -43 4 -75 10 -75 6 0 10 16 10 35 0 19 4 35 9 35 5 0
18 -16 30 -35 11 -19 25 -35 32 -35 6 0 3 13 -9 32 -19 29 -19 33 -4 56 15 23
15 26 -7 43 -13 11 -34 19 -47 19 -23 0 -24 -3 -24 -75z m64 46 c10 -16 -5
-41 -25 -41 -14 0 -19 7 -19 25 0 18 5 25 19 25 11 0 22 -4 25 -9z"/>
<path d="M3400 1730 c-26 -26 -27 -90 -2 -113 45 -41 104 -6 104 59 0 64 -60
96 -102 54z m81 -34 c15 -56 -30 -106 -66 -76 -18 15 -20 81 -3 98 23 23 61
10 69 -22z"/>
<path d="M3526 1728 c26 -83 40 -118 49 -118 8 -1 22 32 50 119 5 15 4 21 -3
17 -6 -3 -18 -30 -28 -59 l-17 -52 -19 58 c-11 31 -24 57 -30 57 -5 0 -6 -10
-2 -22z"/>
<path d="M3650 1675 c0 -43 4 -75 10 -75 6 0 10 32 10 75 0 43 -4 75 -10 75
-6 0 -10 -32 -10 -75z"/>
<path d="M3707 1744 c-4 -4 -7 -38 -7 -76 l0 -68 38 0 c49 0 71 17 78 60 4 26
1 41 -13 57 -18 22 -82 40 -96 27z m77 -30 c22 -22 20 -60 -5 -85 -35 -35 -54
-22 -57 44 -3 55 -2 57 22 57 13 0 32 -7 40 -16z"/>
<path d="M3847 1743 c-4 -3 -7 -37 -7 -75 l0 -68 48 1 c44 2 45 2 12 8 -29 5
-36 11 -38 33 -3 22 1 27 25 31 l28 4 -27 2 c-23 1 -28 6 -28 26 0 22 4 25 35
25 19 0 35 5 35 10 0 11 -73 14 -83 3z"/>
<path d="M3957 1743 c-11 -10 -8 -143 2 -143 6 0 11 14 13 32 4 44 21 45 44 3
10 -19 22 -35 26 -35 12 0 9 14 -8 39 -12 17 -13 26 -5 34 21 21 13 57 -15 67
-30 12 -48 13 -57 3z m61 -35 c-2 -15 -11 -24 -25 -26 -19 -3 -23 1 -23 22 0
21 5 26 26 26 21 0 25 -4 22 -22z"/>
</g>
</svg>
