<?xml version="1.0" standalone="no"?>
<!DOCTYPE svg PUBLIC "-//W3C//DTD SVG 20010904//EN"
 "http://www.w3.org/TR/2001/REC-SVG-20010904/DTD/svg10.dtd">
<svg version="1.0" xmlns="http://www.w3.org/2000/svg"
 width="2000.000000pt" height="2000.000000pt" viewBox="0 0 2000.000000 2000.000000"
 preserveAspectRatio="xMidYMid meet">
<metadata>
Created by potrace 1.14, written by Peter Selinger 2001-2017
</metadata>
<g transform="translate(0.000000,2000.000000) scale(0.100000,-0.100000)"
fill="#000000" stroke="none">
<path d="M15523 17779 c-399 -30 -799 -238 -975 -508 l-48 -74 21 -23 c23 -24
126 -78 171 -89 21 -5 31 -17 43 -54 16 -49 38 -74 74 -86 12 -4 21 -15 22
-28 1 -33 8 -68 27 -145 l18 -70 -32 -15 c-45 -22 -78 -94 -71 -155 13 -104
93 -210 174 -229 32 -7 37 -13 59 -73 21 -60 61 -111 94 -122 8 -2 14 -26 15
-63 3 -57 1 -61 -29 -80 -34 -22 -84 -112 -88 -159 -3 -34 -34 -49 -93 -46
-205 12 -282 -33 -479 -280 -220 -276 -563 -767 -733 -1050 -88 -146 -193
-349 -193 -372 0 -8 -3 -18 -7 -22 -5 -4 -12 -25 -18 -46 l-10 -39 -45 28
c-25 15 -70 41 -100 58 -30 17 -152 86 -270 155 -205 119 -450 261 -515 298
-16 9 -160 93 -320 185 -159 92 -306 176 -325 187 -19 11 -60 35 -91 54 -31
19 -59 34 -62 34 -3 0 -41 22 -84 48 -43 26 -105 63 -138 81 -71 40 -76 43
-275 158 -887 513 -1271 734 -1305 750 -52 27 -97 36 -166 35 -107 -1 -83 11
-804 -407 -159 -92 -353 -204 -430 -248 -77 -44 -152 -87 -167 -96 -26 -15
-273 -158 -367 -212 -25 -15 -161 -93 -301 -174 -140 -81 -271 -156 -290 -167
-19 -11 -91 -53 -160 -93 -69 -40 -141 -82 -160 -92 -19 -11 -91 -53 -160 -93
-69 -40 -143 -83 -165 -95 -22 -13 -80 -46 -130 -75 -49 -29 -106 -62 -125
-73 -85 -48 -1349 -777 -1475 -851 -194 -112 -239 -157 -281 -272 -16 -46 -17
-136 -18 -1433 l-1 -1385 -170 -73 c-302 -130 -741 -354 -998 -510 -138 -83
-443 -282 -480 -313 -7 -6 -64 -49 -127 -96 -113 -85 -245 -191 -305 -244
-498 -445 -818 -851 -1044 -1325 -85 -178 -170 -418 -211 -600 -16 -68 -17
-77 -24 -121 -3 -22 -8 -50 -11 -64 -21 -111 -29 -223 -29 -405 -1 -239 18
-406 70 -620 25 -101 81 -292 92 -310 4 -5 7 -14 8 -20 5 -22 75 -186 116
-270 82 -166 180 -338 218 -382 5 -7 10 -16 10 -21 0 -5 9 -17 20 -27 11 -10
20 -22 20 -26 0 -5 16 -30 36 -56 20 -27 45 -61 57 -77 59 -80 171 -213 272
-325 86 -95 255 -259 370 -358 66 -58 132 -116 146 -129 115 -103 761 -554
794 -554 3 0 28 -15 57 -33 29 -19 82 -50 118 -69 36 -20 92 -50 125 -68 69
-37 492 -250 545 -273 19 -9 62 -28 95 -42 86 -39 381 -160 515 -212 202 -79
894 -304 1009 -328 9 -2 106 -27 216 -55 110 -29 211 -54 225 -57 14 -2 59
-13 100 -23 218 -55 887 -177 1120 -205 23 -3 56 -7 161 -21 59 -8 106 -14
147 -19 20 -2 53 -7 72 -10 19 -2 58 -7 85 -10 140 -13 173 -16 209 -21 22 -2
74 -6 115 -9 42 -3 94 -7 116 -10 22 -2 85 -7 140 -10 55 -4 125 -8 155 -10
380 -27 1464 -27 1785 0 22 1 92 6 155 10 169 11 268 19 370 30 19 2 64 6 100
10 74 7 77 7 305 35 94 12 182 23 196 25 14 3 43 7 65 10 43 5 176 24 213 30
13 2 45 7 70 11 25 4 55 8 66 10 29 6 125 22 160 28 17 3 41 7 55 11 14 3 39
8 55 11 17 3 120 23 230 45 110 22 211 42 225 45 14 3 33 7 42 10 9 3 25 7 35
9 211 42 857 222 1053 293 8 3 20 6 25 8 11 2 289 97 350 118 77 28 511 204
588 239 42 20 80 36 82 36 10 0 549 268 610 303 33 19 105 60 160 92 55 31
107 61 115 66 8 5 60 37 115 71 55 34 153 99 219 143 155 106 158 108 180 128
11 10 23 18 27 18 4 0 14 6 21 13 7 7 38 31 69 54 272 201 612 524 853 813 53
64 149 194 210 285 36 55 70 105 74 110 35 48 222 400 222 419 0 3 11 30 25
61 22 47 107 290 121 342 41 163 67 298 79 423 4 36 9 76 11 90 6 32 6 367 0
400 -2 14 -7 54 -11 90 -4 36 -8 76 -10 90 -5 50 -47 247 -67 315 -11 39 -23
84 -27 100 -10 38 -67 198 -85 239 -103 231 -143 311 -224 446 -45 75 -181
281 -192 290 -3 3 -28 34 -55 70 -27 36 -52 67 -55 70 -3 3 -13 14 -21 26 -36
53 -294 332 -378 408 -19 17 -44 40 -55 51 -49 48 -155 141 -246 215 -30 25
-57 47 -60 50 -3 3 -32 25 -65 50 -33 25 -70 54 -83 65 -22 18 -54 42 -156
113 -46 32 -47 32 -205 137 -107 71 -120 83 -116 105 2 14 9 63 15 110 12 94
18 134 24 183 3 17 8 55 11 82 3 28 12 95 20 150 8 55 17 116 19 135 4 35 34
253 41 300 2 14 7 48 10 77 3 28 15 105 25 170 17 104 19 154 14 413 -2 162
-6 318 -8 345 -2 28 -7 111 -11 185 -3 74 -8 164 -10 200 -2 36 -7 117 -10
180 -3 63 -8 144 -10 180 -2 36 -7 110 -10 165 -3 55 -8 127 -10 160 -2 33 -7
110 -10 170 -3 61 -8 135 -10 165 -3 30 -7 93 -10 140 -10 179 -17 265 -21
272 -3 5 -1 8 4 8 5 0 26 -21 47 -47 22 -27 109 -118 195 -204 146 -147 213
-220 234 -257 9 -16 31 -42 110 -129 50 -55 136 -108 237 -143 69 -25 92 -28
177 -26 105 2 158 19 226 71 54 41 90 128 68 163 -8 12 -166 82 -186 82 -21 0
-173 81 -206 110 l-35 31 40 -8 c22 -4 70 -8 107 -8 52 0 73 5 95 21 38 28 39
75 3 85 -163 46 -233 62 -275 66 -126 11 -214 54 -306 150 -113 119 -143 170
-254 428 -25 61 -55 129 -66 152 -10 24 -19 49 -19 56 0 7 -4 17 -8 22 -25 29
-125 334 -146 442 -9 46 -18 171 -21 308 -3 127 -8 246 -10 266 -2 19 -6 80
-9 135 -4 54 -9 106 -11 114 -3 8 -7 34 -10 57 -12 98 -52 225 -86 275 -11 14
-19 30 -19 35 0 5 -26 38 -57 73 -40 44 -76 72 -118 91 -33 16 -65 29 -71 29
-5 0 -25 16 -44 35 -18 19 -55 42 -81 51 -26 10 -46 20 -44 23 2 4 56 5 120 4
130 -3 164 7 224 68 108 108 163 406 138 741 -6 73 -5 77 19 93 60 39 108 109
108 155 -1 63 -79 151 -180 203 -25 13 -33 25 -38 57 -6 36 -1 51 43 130 57
103 113 243 106 262 -9 22 -102 59 -186 74 -134 23 -331 33 -466 23z m-899
-3779 c1 -363 -2 -660 -5 -660 -6 0 -89 87 -218 230 -23 25 -67 81 -99 125
-31 44 -65 89 -74 99 -10 11 -18 25 -18 32 0 7 -4 14 -8 16 -4 2 -29 33 -55
69 l-47 67 53 73 c219 306 458 620 466 613 2 -2 4 -301 5 -664z m830 -1455 c3
-16 10 -75 16 -130 6 -55 13 -111 15 -125 2 -14 9 -70 15 -125 6 -55 13 -114
15 -132 4 -25 23 -186 40 -328 2 -16 6 -48 10 -70 9 -59 13 -93 20 -160 3 -33
8 -71 10 -85 3 -14 12 -86 20 -160 9 -74 18 -155 21 -180 4 -24 8 -56 10 -70
1 -14 -1 -50 -6 -80 -5 -30 -12 -75 -15 -100 -3 -25 -8 -56 -10 -70 -25 -145
-33 -275 -36 -583 -1 -131 -6 -236 -10 -235 -46 18 -407 203 -404 208 2 3 6
28 9 55 4 28 8 61 10 75 5 25 11 66 22 138 3 20 9 62 14 92 5 30 12 75 15 100
3 25 10 70 15 100 5 30 12 78 16 105 3 28 8 57 9 66 2 9 6 40 10 69 4 29 9 62
11 74 2 12 6 48 10 81 3 33 7 76 10 95 3 19 7 60 10 90 11 117 14 146 18 180
3 19 8 71 12 115 3 44 7 91 9 105 1 14 5 59 9 100 4 41 9 95 11 120 3 25 7 74
10 110 3 36 8 88 10 115 5 62 13 157 21 254 3 41 8 81 9 90 2 9 4 43 4 75 1
63 6 70 15 21z"/>
</g>
</svg>
